<?xml version="1.0" encoding="UTF-8"?>
<svg width="500px" height="500px" viewBox="0 0 500 500" version="1.1" xmlns="http://www.w3.org/2000/svg" xmlns:xlink="http://www.w3.org/1999/xlink">
    <!-- Generator: Sketch 52.6 (67491) - http://www.bohemiancoding.com/sketch -->
    <title>Artboard</title>
    <desc>Created with Sketch.</desc>
    <defs>
        <linearGradient x1="49.9973665%" y1="99.9976212%" x2="49.9973665%" y2="-0.00605750313%" id="linearGradient-1">
            <stop stop-color="#3D3F4A" offset="40.14%"></stop>
            <stop stop-color="#282A36" offset="62.3%"></stop>
        </linearGradient>
        <linearGradient x1="50.0032596%" y1="99.9968939%" x2="50.0032596%" y2="0.00225055259%" id="linearGradient-2">
            <stop stop-color="#7A87B2" offset="0%"></stop>
            <stop stop-color="#8188B9" offset="2.8%"></stop>
            <stop stop-color="#978CD1" offset="13.29%"></stop>
            <stop stop-color="#A88FE3" offset="25.33%"></stop>
            <stop stop-color="#B491EF" offset="39.67%"></stop>
            <stop stop-color="#BB93F7" offset="58.6%"></stop>
            <stop stop-color="#BD93F9" offset="100%"></stop>
        </linearGradient>
        <linearGradient x1="50.0032596%" y1="101.083725%" x2="50.0032596%" y2="-0.929585499%" id="linearGradient-3">
            <stop stop-color="#6272A4" offset="0%"></stop>
            <stop stop-color="#6D7CAA" offset="37.24%"></stop>
            <stop stop-color="#8995BB" offset="100%"></stop>
        </linearGradient>
        <linearGradient x1="49.9991875%" y1="100.002057%" x2="49.9991875%" y2="-0.002299407%" id="linearGradient-4">
            <stop stop-color="#808285" offset="0%"></stop>
            <stop stop-color="#87898C" offset="4.91%"></stop>
            <stop stop-color="#9EA0A3" offset="24.97%"></stop>
            <stop stop-color="#AFB1B3" offset="46.41%"></stop>
            <stop stop-color="#B9BBBD" offset="70.03%"></stop>
            <stop stop-color="#BCBEC0" offset="100%"></stop>
        </linearGradient>
        <linearGradient x1="49.9969149%" y1="101.196019%" x2="49.9969149%" y2="-1.19148148%" id="linearGradient-5">
            <stop stop-color="#A7A9AC" offset="0%"></stop>
            <stop stop-color="#ABADB0" offset="0.5982441%"></stop>
            <stop stop-color="#C1C2C5" offset="4.45%"></stop>
            <stop stop-color="#D2D3D4" offset="8.96%"></stop>
            <stop stop-color="#DDDEE0" offset="14.58%"></stop>
            <stop stop-color="#E4E5E6" offset="22.46%"></stop>
            <stop stop-color="#E6E7E8" offset="44.35%"></stop>
        </linearGradient>
        <linearGradient x1="49.9968613%" y1="100.003459%" x2="49.9968613%" y2="-0.00176787087%" id="linearGradient-6">
            <stop stop-color="#D1D3D4" offset="0%"></stop>
            <stop stop-color="#DFE0E1" offset="12.23%"></stop>
            <stop stop-color="#F6F7F7" offset="37.47%"></stop>
            <stop stop-color="#FFFFFF" offset="53.2%"></stop>
        </linearGradient>
        <linearGradient x1="49.9954041%" y1="101.497156%" x2="49.9954041%" y2="-2.67794005%" id="linearGradient-7">
            <stop stop-color="#BCBEC0" offset="47.66%"></stop>
            <stop stop-color="#C1C3C5" offset="48.93%"></stop>
            <stop stop-color="#D2D3D5" offset="54.72%"></stop>
            <stop stop-color="#DDDFE0" offset="61.88%"></stop>
            <stop stop-color="#E4E5E6" offset="71.98%"></stop>
            <stop stop-color="#E6E7E8" offset="100%"></stop>
        </linearGradient>
        <linearGradient x1="49.9788793%" y1="111.111588%" x2="49.9788793%" y2="-4.29585122%" id="linearGradient-8">
            <stop stop-color="#BCBEC0" offset="0%"></stop>
            <stop stop-color="#C1C2C4" offset="2.33%"></stop>
            <stop stop-color="#D1D3D4" offset="13.68%"></stop>
            <stop stop-color="#DDDEE0" offset="27.7%"></stop>
            <stop stop-color="#E4E5E6" offset="47.28%"></stop>
            <stop stop-color="#E6E7E8" offset="100%"></stop>
        </linearGradient>
        <linearGradient x1="50.0022517%" y1="99.9858407%" x2="50.0022517%" y2="-0.0142474237%" id="linearGradient-9">
            <stop stop-color="#44475A" offset="0%"></stop>
            <stop stop-color="#282A36" offset="72.25%"></stop>
        </linearGradient>
    </defs>
    <g id="Artboard" stroke="none" stroke-width="1" fill="none" fill-rule="evenodd">
        <g id="logo" transform="translate(99.000000, 12.000000)">
            <g id="Group">
                <path d="M0.142880535,189.760893 C-0.415652464,191.622698 1.49375104,213.039965 2.45494737,216.320908 C3.41614369,219.614871 5.70223225,224.73158 9.48207185,228.702563 C13.2749006,232.673545 18.9381654,236.826803 21.6139282,240.211902 C24.30268,243.597002 29.9399666,248.922025 34.8628505,252.958106 C39.7857343,256.994187 47.1765547,262.215052 58.2043342,266.719839 C61.8542824,268.217095 69.829614,272.78698 75.3370092,274.49255 C81.4289156,276.380394 83.9358195,276.276237 86.7934302,277.799532 C92.0670209,280.611769 95.7819148,283.788555 100.029363,287.290831 C104.276812,290.793108 108.848989,293.605345 120.097584,292.928325 C131.346179,292.251305 138.11352,289.517186 140.789283,288.566754 C143.452057,287.616322 148.84255,286.197184 151.154617,285.702438 C153.466683,285.207693 157.805056,285.31185 159.740438,285.468085 C163.520277,285.767536 170.222673,284.439536 173.353056,282.421495 C177.093928,279.999847 179.691756,279.830592 182.003823,279.661337 C186.692902,279.322827 190.537688,275.937727 199.695031,276.041884 C205.955796,276.120002 210.605908,275.390903 212.619225,274.987295 C218.178576,273.880628 214.814389,277.18761 217.555098,278.294277 C220.84135,279.622278 240.675766,266.173015 254.249417,256.121872 C266.524154,247.021161 275.863345,238.337078 281.344762,232.452212 C288.384876,224.900835 298.477437,208.040433 298.854122,206.569217 C299.061948,205.814079 298.503415,205.006863 297.97086,204.394941 C297.698089,204.08247 298.594339,205.202157 297.685099,205.905216 C296.840805,206.569217 293.697434,207.298315 290.43716,207.688903 C284.592047,208.391963 278.474162,206.412981 276.707639,205.657843 C275.239866,205.019882 265.316164,199.812036 263.900348,193.809994 C263.133988,190.568109 247.624956,179.358221 239.779515,180.803398 C233.778533,181.910065 215.152107,183.941125 208.865363,181.75383 C168.676966,167.757743 115.005841,179.162926 107.316271,180.477907 C98.8343626,181.936104 98.4316992,182.508967 92.7164779,181.532496 C90.0147368,181.07681 80.4027736,185.868028 74.3108672,186.623166 C68.2189607,187.378304 62.0880869,190.672266 58.0224862,190.86756 C51.9825363,191.153992 37.6944829,191.284188 34.7459482,191.297208 C31.3427937,191.310227 24.1078429,187.625676 22.899853,187.052813 C21.691863,186.47995 14.5868037,186.701284 12.9631612,185.13893 C11.3265297,183.589595 9.07940852,182.847477 3.35119799,185.12591 C0.610489557,186.219558 0.649456976,188.042304 0.142880535,189.760893 Z" id="Path" stroke="#282A36" stroke-width="3" fill="url(#linearGradient-1)"></path>
                <path d="M212.917975,275.14353 C214.840368,274.948236 193.927853,235.850331 191.265079,233.663036 C188.602306,231.475741 189.927198,245.120297 190.19997,247.294573 C190.459753,249.351672 193.681059,272.656784 194.057744,276.263217 C194.083723,276.484551 194.265571,276.653806 194.499375,276.640786 C195.902202,276.549649 200.61726,276.263217 202.227913,276.120002 C204.111338,275.937727 211.03455,275.338825 212.917975,275.14353 Z" id="Path" fill="#282A36"></path>
                <g transform="translate(40.266332, 129.944520)">
                    <path d="M2.75369758,275.733674 C3.06543693,278.624028 33.7587736,311.04287 54.3595489,329.960371 C54.6842774,330.259823 54.1127552,314.532127 54.6453099,314.883657 C82.9096775,333.085079 111.018175,348.838814 111.018175,348.838814 C111.018175,348.838814 137.204281,331.913314 162.637016,313.803029 C163.234516,313.373382 162.286309,330.572293 162.753918,330.181705 C181.094583,314.870637 209.540799,288.72725 215.632705,282.451795 C215.632705,282.451795 222.906623,199.230414 209.345962,177.774088 C193.849918,153.258152 166.897454,138.702223 115.421494,139.275086 C57.4899315,139.900027 19.1459916,152.073367 5.92304762,184.296915 C-2.87059983,205.740222 2.19516458,270.564886 2.75369758,275.733674 Z" id="Path" stroke="url(#linearGradient-3)" stroke-width="3" fill="url(#linearGradient-2)"></path>
                    <polygon id="Path" stroke="#44475A" stroke-width="1.2852" fill="#44475A" opacity="0.25" points="53.9438964 109.876794 112.382035 163.14004 168.092454 112.636953 163.870984 235.802514 112.135241 279.392186 58.2562907 235.802514"></polygon>
                    <ellipse id="Oval" stroke="#808285" stroke-width="3" fill="url(#linearGradient-4)" cx="111.303937" cy="107.754597" rx="87.9234854" ry="107.581081"></ellipse>
                    <path d="M170.014847,91.1545874 C170.014847,129.9921 143.620916,161.46051 111.070132,161.46051 C81.9484812,161.46051 57.7627034,136.280574 52.9827001,103.184712 C52.4241671,99.2788274 52.1254169,95.2557662 52.1254169,91.1545874 C52.1254169,52.3170749 78.5193484,20.8486647 111.070132,20.8486647 C143.620916,20.8486647 170.014847,52.3300945 170.014847,91.1545874 Z" id="Path" stroke="url(#linearGradient-5)" stroke-width="2.5703" fill="#FFDBB5"></path>
                    <polygon id="Path" stroke="url(#linearGradient-7)" stroke-width="3" fill="url(#linearGradient-6)" points="53.0346566 101.635378 112.382035 154.768428 168.91077 104.070046 163.870984 227.430901 112.135241 271.020573 58.2562907 227.430901"></polygon>
                    <polygon id="Path" stroke="url(#linearGradient-8)" stroke-width="3" fill="#FFFFFF" points="91.2097377 115.969974 129.644602 115.969974 141.763469 131.541434 141.763469 161.47353 121.682259 139.275086 102.19855 139.275086 81.4938613 161.47353 81.7016876 126.906451"></polygon>
                    <path d="M112.382035,270.551867 L112.16122,187.786172" id="Path" stroke="#BCBEC0" stroke-width="4"></path>
                    <path d="M138.477216,248.574756 L138.477216,215.023207" id="Path" stroke="#BCBEC0" stroke-width="4"></path>
                    <path d="M83.0915255,246.856167 L83.0915255,213.122344" id="Path" stroke="#BCBEC0" stroke-width="4"></path>
                    <path d="M55.2947669,258.482683 L55.2947669,315.313304" id="Path" stroke="#6272A4" stroke-width="3.8555"></path>
                    <path d="M161.97457,315.313304 L161.97457,258.482683" id="Path" stroke="#6272A4" stroke-width="3.8555"></path>
                    <path d="M95.5091429,86.2722317 L76.804782,86.2722317 C74.5966282,86.2722317 72.804127,84.4625051 72.804127,82.2621901 L72.804127,79.9707379 C72.804127,77.7574032 74.6096174,75.9606963 76.804782,75.9606963 L95.5091429,75.9606963 C97.7172966,75.9606963 99.5097978,77.7704229 99.5097978,79.9707379 L99.5097978,82.2621901 C99.522787,84.4625051 97.7172966,86.2722317 95.5091429,86.2722317 Z" id="Path" fill="#696C7B"></path>
                    <path d="M145.97195,86.3112905 L127.176665,86.3112905 C124.968511,86.3112905 123.17601,84.501564 123.17601,82.301249 L123.17601,80.0097967 C123.17601,77.7964621 124.9815,75.9997552 127.176665,75.9997552 L145.97195,75.9997552 C148.180104,75.9997552 149.972605,77.8094817 149.972605,80.0097967 L149.972605,82.301249 C149.985594,84.501564 148.180104,86.3112905 145.97195,86.3112905 Z" id="Path" fill="#696C7B"></path>
                </g>
                <path d="M67.309721,202.546155 C78.5972832,200.814547 89.8978346,189.917129 99.9774069,191.726855 C115.577363,194.539092 143.517003,189.161991 158.610383,188.068343 C173.833654,186.961676 194.343505,191.583639 203.890523,193.796974 C219.997056,197.533603 224.816027,195.359328 232.674456,194.070386 C245.689574,191.922149 218.944936,160.336563 212.99591,155.558364 C207.046884,150.780165 141.633577,135.430038 83.7539716,162.588956 C82.1303292,163.344094 58.9447151,203.835097 67.309721,202.546155 Z" id="Path" stroke="#333540" stroke-width="2" fill="#44475A" opacity="0.15"></path>
                <path d="M78.5453266,159.503307 C78.4933701,159.633503 78.4024461,159.724641 78.2725547,159.763699 C74.1939649,161.013583 8.97549541,181.050771 4.74103592,183.44638 C3.50706767,184.136419 2.55886048,184.80042 1.83146867,185.4514 C-0.0129891395,187.091872 0.0909239766,189.044814 0.311739348,190.802462 C0.610489557,193.25015 0.363695906,187.755872 3.75386132,186.610146 C10.0925614,184.46191 7.6246249,186.792421 11.547345,189.695795 C15.4830543,192.599169 23.4973534,195.658779 29.978934,196.583172 C45.7347602,198.835565 55.6324845,195.684818 63.9974904,194.395876 C75.2850526,192.664267 86.585604,181.766849 96.6651763,183.576576 C112.265133,186.388813 140.204772,181.011712 155.298152,179.918064 C170.521424,178.811397 191.031275,183.43336 200.578292,185.646695 C216.684825,189.383324 221.503796,187.209049 229.362226,185.920107 C242.377343,183.77187 249.37849,194.096425 260.925835,202.988822 C272.46019,211.88122 288.16406,207.259256 297.944882,204.42098 C302.127385,203.210156 264.354967,180.360731 254.535178,174.358688 C239.480765,165.15382 215.632705,152.173264 209.683679,147.408085 C203.734653,142.642905 199.941825,136.445568 199.539161,133.190665 C199.136498,129.935761 199.772966,113.71332 199.266389,108.401317 C198.759813,103.089314 193.642092,80.9038895 193.408287,79.0030257 C193.187472,77.2453776 192.693885,73.951415 192.538015,72.3109434 C192.512037,72.1026296 192.654917,71.920355 192.849754,71.8682765 C193.538179,71.6990215 195.005952,71.2954134 195.317691,70.9829427 C196.110028,70.1627069 204.643893,65.8922731 209.164114,62.8066243 C213.788247,59.6558774 220.737437,51.9092062 225.920104,44.6833197 C232.817337,35.0878633 247.949684,8.64502457 249.67724,6.2103565 C251.469741,3.68455113 251.625611,2.2133346 250.768327,0.807216149 C249.911044,-0.598902304 247.352184,0.143215768 244.910226,1.67953038 C243.091746,2.83827614 236.792013,5.57239535 234.402012,7.38212188 C232.01201,9.19184841 217.386239,15.3371068 215.074172,16.9385195 C211.151452,19.6726387 200.954977,25.5835441 198.227258,27.7448002 C196.590627,29.0467618 192.291221,31.3251944 191.291058,32.1324106 C190.290894,32.9396267 178.249962,34.4368825 174.19735,34.9446475 C170.144739,35.4524125 156.415218,38.3688063 151.596247,39.9441798 C146.179776,41.7148475 139.815098,46.909674 135.126018,53.4194816 C132.372321,57.2342289 117.43481,73.5478069 113.603014,80.3570657 C109.927088,86.9059322 96.6521871,111.526025 80.441741,154.425657 C79.8182623,156.079148 79.1817945,157.771698 78.5453266,159.503307 Z" id="Path" stroke="#333540" stroke-width="2" fill="url(#linearGradient-9)"></path>
                <path d="M191.472906,71.6729823 C190.186981,70.5923542 173.249143,58.8616808 167.793704,55.6588555 C162.338266,52.4560301 148.439886,44.8525747 147.076027,42.0533575 C146.88119,41.6497494 152.570433,39.462454 156.038533,38.6812771 C160.117123,37.7568844 164.416528,36.6111583 164.741256,36.6762563 C167.85865,37.3142175 175.40534,38.6942967 177.184852,38.8895909 C178.964364,39.0718655 183.484585,39.0197871 185.731706,39.7749248 C187.991816,40.5300625 188.758175,41.2852002 190.524698,43.5115544 C192.46008,45.959242 195.03193,50.0734405 195.876224,51.0108528 C196.720518,51.9482651 199.162476,55.3984631 199.266389,54.6563451 C199.370302,53.914227 197.759649,49.8260678 194.759158,45.4905359 C191.758667,41.155004 186.212304,34.2025294 185.056271,33.4604113 L186.394152,33.2520975 C187.238446,34.0983725 199.2534,38.7593948 203.968458,39.5666109 C210.709821,40.7253567 222.65983,40.1004152 224.543255,40.0353171 C227.413855,39.9441798 230.037661,38.4990025 229.479128,39.3843363 C223.698961,48.498067 214.892324,57.6899154 213.034877,59.6037989 C212.008735,60.6583877 208.774439,63.3534481 204.643893,65.5147042 C200.253564,67.7931369 192.810787,72.8056888 191.472906,71.6729823 Z" id="Path" fill="#282A36"></path>
                <path d="M78.6492398,159.529346 C79.7533166,155.974991 81.8445681,150.337498 82.8187536,149.426125 C84.819081,147.5513 116.694429,136.797098 141.620588,135.417019 C166.546747,134.03694 190.836438,133.841645 204.033404,142.265337 C205.721992,143.345965 208.800418,146.718045 209.592755,148.098124 C209.605744,148.111144 209.579766,148.137183 209.566777,148.124163 C208.787429,147.91585 199.604107,145.559299 191.602797,144.296396 C173.755719,141.48416 159.090981,142.057023 143.776785,143.072553 C109.680294,145.337966 80.5976107,157.407149 78.5842941,159.503307" id="Path" stroke="#282A36" stroke-width="2" fill="#282A36"></path>
            </g>
            <path d="M77.9946214,160.806662 C77.9429015,160.937971 77.8523917,161.029888 77.723092,161.069281 C73.6630814,162.329852 8.74170124,182.538387 4.52653097,184.954482 C3.29818381,185.650423 2.35429598,186.320102 1.63021766,186.976649 C-0.205838107,188.631149 -0.102398346,190.600792 0.117411147,192.37347 C0.41480046,194.842089 0.169131028,189.300828 3.54385324,188.145304 C9.85367867,185.978697 7.39698434,188.329137 11.3018353,191.257339 C15.2196163,194.185542 23.1974079,197.271316 29.649463,198.203613 C45.3335168,200.475268 55.186154,197.297577 63.5130548,195.997613 C74.7491989,194.251197 85.9982729,183.26059 96.0319298,185.085792 C111.560824,187.922078 139.37319,182.498994 154.397815,181.395994 C169.55174,180.279864 189.968163,184.941352 199.471691,187.173613 C215.504854,190.942197 220.301873,188.749328 228.124505,187.449363 C241.080335,185.282756 248.049589,195.695601 259.544332,204.664042 C271.026146,213.632482 286.65848,208.970994 296.394747,206.108446 C300.558198,204.887268 262.957844,181.842447 253.182787,175.789078 C238.196952,166.505495 214.457526,153.413936 208.5356,148.608007 C202.613674,143.802079 198.838122,137.551746 198.437293,134.269008 C198.036464,130.98627 198.670033,114.625103 198.165764,109.267675 C197.648565,103.910246 192.567087,81.5351042 192.334347,79.6179852 C192.114538,77.8453066 191.623199,74.5231758 191.468039,72.8686758 C191.44218,72.6585806 191.584409,72.4747473 191.778359,72.4222235 C192.463647,72.2515211 193.924734,71.8444616 194.235053,71.5293187 C195.023781,70.7020687 203.518772,66.3951165 208.018401,63.2830808 C212.621471,60.1053904 219.539005,52.292474 224.698063,45.0047956 C231.563877,35.3272839 246.627292,8.65832031 248.346978,6.20283227 C250.131314,3.65542758 250.286474,2.17163 249.433096,0.753487174 C248.579718,-0.664655647 246.032514,0.0838086199 243.601679,1.63326096 C241.791483,2.80191569 235.520448,5.55941562 233.141333,7.38461796 C230.762219,9.20982029 216.203072,15.4076297 213.901538,17.0227368 C209.996687,19.7802367 199.84666,25.7416889 197.131366,27.921427 C195.50219,29.2345222 191.22237,31.5324388 190.226762,32.3465578 C189.231155,33.1606768 177.245072,34.6707363 173.210922,35.1828434 C169.176771,35.6949506 155.509792,38.6362838 150.712774,40.225129 C145.346836,41.9846766 139.011151,47.2239265 134.330501,53.7894025 C131.589348,57.6367714 116.719882,74.0898544 112.905541,80.9573423 C109.246359,87.5622112 96.0319298,112.392841 79.895327,155.659328 C79.2746884,157.34009 78.6411199,159.060245 77.9946214,160.806662 Z" id="Path" stroke="#333540" stroke-width="2"></path>
        </g>
    </g>
</svg>