<?xml version="1.0" encoding="iso-8859-1"?>
<!-- Generator: Adobe Illustrator 19.0.0, SVG Export Plug-In . SVG Version: 6.00 Build 0)  -->
<svg version="1.1" id="Layer_1" xmlns="http://www.w3.org/2000/svg" xmlns:xlink="http://www.w3.org/1999/xlink" x="0px" y="0px"
	 viewBox="0 0 512 512" style="enable-background:new 0 0 512 512;" xml:space="preserve">
<path style="fill:#A0815C;" d="M439.828,15.689v382.3h10.46v15.689h-31.902v67.988h31.902v15.689H236.911v14.56l-41.839-25.741
	l-41.839,25.741v-14.56h-44.977c-27.394,0-49.683-22.29-49.683-49.683c0-1.234,0.063-2.448,0.146-3.661h-0.146V49.683
	C58.574,22.29,80.864,0,108.257,0h345.169v15.689H439.828z"/>
<path style="fill:#FFFFFF;" d="M402.697,481.667v-12.813v-15.689v-10.983v-15.689v-12.813H150.096
	c-18.744,0-33.994,15.25-33.994,33.994s15.25,33.994,33.994,33.994H402.697z"/>
<polygon style="fill:#FFDA44;" points="186.705,361.381 389.622,361.381 389.622,69.557 389.622,59.097 389.622,51.775 
	186.705,51.775 186.705,60.143 186.705,70.603 "/>
<path style="fill:#6A563D;" d="M108.257,15.689c-18.744,0-33.994,15.25-33.994,33.994v361.806
	c8.895-8.361,20.852-13.499,33.994-13.499h26.149v-382.3H108.257z"/>
<g>
	<path style="fill:#FFFFFF;" d="M250.164,170.879h-14.581c-5.701-14.351-9.497-18.148-23.848-23.848v-14.581
		c14.351-5.701,18.147-9.497,23.848-23.848h14.581c5.701,14.351,9.497,18.147,23.848,23.848v14.581
		C259.661,152.732,255.864,156.529,250.164,170.879z"/>
	<path style="fill:#FFFFFF;" d="M319.616,176.381v14.581c-14.351,5.701-18.148,9.497-23.848,23.848h-14.581
		c-5.701-14.351-9.497-18.148-23.848-23.848v-14.581c14.351-5.701,18.147-9.497,23.848-23.848h14.581
		C301.468,166.884,305.265,170.681,319.616,176.381z"/>
	<path style="fill:#FFFFFF;" d="M361.977,111.113v14.581c-20.417,8.117-26.191,13.89-34.308,34.308h-14.581
		c-8.117-20.417-13.89-26.191-34.308-34.308v-14.581c20.417-8.117,26.191-13.89,34.308-34.308h14.581
		C335.786,97.222,341.56,102.996,361.977,111.113z"/>
</g>
<g>
	<path style="fill:#00FFFF;" d="M58.72,444.012c-0.037,0.53-0.067,1.062-0.091,1.593c0.025-0.532,0.055-1.064,0.094-1.593H58.72z"/>
	<polygon style="fill:#00FFFF;" points="167.18,503.336 195.073,486.175 222.965,503.336 195.073,486.171 	"/>
</g>
<path style="fill:#6A563D;" d="M108.257,481.667h5.654c-8.361-8.895-13.499-20.852-13.499-33.994s5.138-25.099,13.499-33.994h-5.654
	c-18.744,0-33.994,15.25-33.994,33.994S89.514,481.667,108.257,481.667z"/>
<polygon style="fill:#D80027;" points="221.222,483.841 221.222,455.518 168.923,455.518 168.923,483.841 195.073,467.749 "/>
<path d="M439.828,377.152V15.771h13.598V0.082H108.257c-27.395,0-49.683,22.288-49.683,49.683v394.329h0.15
	c-0.089,1.21-0.15,2.429-0.15,3.661c0,27.395,22.288,49.683,49.683,49.683h44.977V512l41.839-25.747L236.911,512v-14.562h213.377
	v-15.689h-31.902v-67.988h31.902v-15.689H108.257c-13.142,0-25.099,5.139-33.994,13.499V49.765c0-18.744,15.25-33.994,33.994-33.994
	h26.149v361.381h15.689V15.771h274.043v361.381H439.828z M221.222,483.922l-26.149-16.091l-26.149,16.091v-28.323h52.298V483.922z
	 M150.096,413.761h252.601v12.813H283.98v15.689h118.717v10.983H263.06v15.689h139.636v12.813H236.911V439.91h-83.677v41.839h-3.138
	c-18.744,0-33.994-15.25-33.994-33.994S131.352,413.761,150.096,413.761z M108.257,413.761h5.654
	c-8.361,8.895-13.499,20.852-13.499,33.994c0,13.142,5.138,25.099,13.499,33.994h-5.654c-18.744,0-33.994-15.25-33.994-33.994
	S89.514,413.761,108.257,413.761z"/>
<rect x="247.371" y="426.576" width="26.149" height="15.689"/>
<rect x="235.865" y="301.845" width="104.597" height="15.689"/>
<rect x="256.784" y="327.994" width="62.758" height="15.689"/>
<rect x="258.876" y="275.696" width="94.137" height="15.689"/>
<rect x="222.268" y="275.696" width="26.149" height="15.689"/>
<polygon points="405.312,36.167 171.015,36.167 171.015,70.684 186.705,70.684 186.705,51.857 389.622,51.857 389.622,69.638 
	405.312,69.638 "/>
<polygon points="171.015,102.063 171.015,377.152 405.312,377.152 405.312,101.017 389.622,101.017 389.622,361.463 
	186.705,361.463 186.705,102.063 "/>
<path d="M361.976,111.196c-20.42-8.116-26.192-13.886-34.308-34.308h-14.58c-8.115,20.42-13.886,26.192-34.308,34.308v14.58
	c20.421,8.115,26.193,13.886,34.308,34.308h14.58c8.116-20.421,13.886-26.193,34.308-34.308L361.976,111.196L361.976,111.196z
	 M320.379,138.769c-5.225-9.017-11.267-15.06-20.284-20.284c9.017-5.225,15.06-11.268,20.284-20.284
	c5.225,9.017,11.268,15.06,20.285,20.284C331.647,123.709,325.604,129.753,320.379,138.769z"/>
<path d="M257.339,176.463v14.58c14.355,5.705,18.144,9.493,23.848,23.848h14.58c5.705-14.355,9.493-18.143,23.848-23.848v-14.58
	c-14.355-5.705-18.143-9.493-23.848-23.848h-14.58C275.483,166.97,271.694,170.758,257.339,176.463z M288.477,172.912
	c2.988,4.419,6.422,7.854,10.841,10.841c-4.419,2.987-7.854,6.422-10.841,10.841c-2.987-4.42-6.421-7.854-10.841-10.841
	C282.056,180.766,285.489,177.332,288.477,172.912z"/>
<path d="M250.164,108.685h-14.581c-5.705,14.355-9.493,18.143-23.848,23.848v14.58c14.355,5.705,18.143,9.493,23.848,23.848h14.58
	c5.704-14.355,9.493-18.143,23.848-23.848v-14.58C259.657,126.829,255.867,123.039,250.164,108.685z M242.873,150.665
	c-2.987-4.419-6.422-7.854-10.841-10.841c4.419-2.987,7.854-6.422,10.841-10.841c2.987,4.419,6.422,7.854,10.841,10.841
	C249.295,142.811,245.86,146.245,242.873,150.665z"/>
<g>
</g>
<g>
</g>
<g>
</g>
<g>
</g>
<g>
</g>
<g>
</g>
<g>
</g>
<g>
</g>
<g>
</g>
<g>
</g>
<g>
</g>
<g>
</g>
<g>
</g>
<g>
</g>
<g>
</g>
</svg>
